<svg xmlns="http://www.w3.org/2000/svg" viewBox="0 0 44.08 62.231">
  <defs>
    <style>
      .cls-1 {
        fill: #fff;
      }
    </style>
  </defs>
  <path id="s11" class="cls-1" d="M25.5,1A5.313,5.313,0,0,0,21,3.575l-.344.57a2.725,2.725,0,0,1-2.292,1.319L17.7,5.48A5.321,5.321,0,0,0,12.48,10.7l-.013.663a2.735,2.735,0,0,1-1.322,2.292l-.57.342a5.323,5.323,0,0,0-1.909,7.138l.319.58a2.73,2.73,0,0,1,0,2.644l-.319.583a5.322,5.322,0,0,0,1.912,7.136l.567.344a2.728,2.728,0,0,1,1.322,2.289l.013.663A5.324,5.324,0,0,0,17.7,40.6l.663.013a2.73,2.73,0,0,1,2.292,1.322l.342.567a5.321,5.321,0,0,0,7.136,1.909l.582-.319a2.728,2.728,0,0,1,2.646,0l.58.319a5.323,5.323,0,0,0,7.136-1.909l.344-.57a2.726,2.726,0,0,1,2.292-1.319l.661-.015A5.323,5.323,0,0,0,47.6,35.377l.013-.663a2.733,2.733,0,0,1,1.319-2.292l.57-.342a5.324,5.324,0,0,0,1.909-7.136l-.319-.583a2.73,2.73,0,0,1,0-2.644l.319-.58A5.325,5.325,0,0,0,49.5,14l-.567-.342a2.733,2.733,0,0,1-1.322-2.292L47.6,10.7A5.322,5.322,0,0,0,42.377,5.48l-.663-.015a2.73,2.73,0,0,1-2.292-1.322l-.342-.565a5.319,5.319,0,0,0-7.136-1.912l-.583.319a2.728,2.728,0,0,1-2.646,0l-.58-.319A5.325,5.325,0,0,0,25.5,1Zm13.98,13.076,2.185,1.4L29.336,34.749l-10.86-9.774,1.737-1.924L28.8,30.779Zm5.614,28.6a7.939,7.939,0,0,1-2.666.524l-.663.013a.14.14,0,0,0-.127.074l-.344.567a7.852,7.852,0,0,1-5.938,3.773l-.372.853-3.492,7.979,2.623,6a1.3,1.3,0,0,0,1.018.765,1.282,1.282,0,0,0,1.185-.473l4.8-6h8.452a1.3,1.3,0,0,0,1.175-1.841Zm-30.044.023L9.418,54.908a1.3,1.3,0,0,0,1.175,1.841h8.452l4.8,6a1.3,1.3,0,0,0,1.01.486,1.261,1.261,0,0,0,.17-.013,1.294,1.294,0,0,0,1.018-.765L32.61,47.438a8.026,8.026,0,0,1-1.912-.745l-.587-.322a.147.147,0,0,0-.074-.02.14.14,0,0,0-.068.02l-.582.319a7.97,7.97,0,0,1-3.826.988,7.862,7.862,0,0,1-6.776-3.826l-.344-.57a.138.138,0,0,0-.127-.074L17.65,43.2A7.948,7.948,0,0,1,15.052,42.695Z" transform="translate(-8 -1)"/>
</svg>
