<svg xmlns="http://www.w3.org/2000/svg" viewBox="0 0 64.435 57">
  <defs>
    <style>
      .cls-1 {
        fill: #fff;
      }
    </style>
  </defs>
  <path id="s12" class="cls-1" d="M34.217,3a2.478,2.478,0,0,0-.823.145v0l-.058.024q-.074.027-.145.058L9.3,13.174v0a3.716,3.716,0,0,0,1.375,7.169H57.761a3.716,3.716,0,0,0,1.375-7.169v0l-.029-.01L35.2,3.208l-.082-.039-.034-.01L35.04,3.14v0A2.478,2.478,0,0,0,34.217,3Zm0,7.435a2.478,2.478,0,1,1-2.478,2.478A2.479,2.479,0,0,1,34.217,10.435ZM11.913,25.3V45.13H9.435a2.478,2.478,0,1,0,0,4.957H59a2.478,2.478,0,1,0,0-4.957H56.522V25.3H51.565V45.13H46.609V25.3H41.652V45.13H36.7V25.3H31.739V45.13H26.783V25.3H21.826V45.13H16.87V25.3ZM4.478,55.043a2.478,2.478,0,1,0,0,4.957H63.957a2.478,2.478,0,1,0,0-4.957Z" transform="translate(-2 -3)"/>
</svg>
