<svg xmlns="http://www.w3.org/2000/svg" viewBox="0 0 57.46 57.455">
  <defs>
    <style>
      .cls-1 {
        fill: #fff;
      }
    </style>
  </defs>
  <g id="s13" transform="translate(-0.031 -0.026)">
    <path id="Path_6" data-name="Path 6" class="cls-1" d="M53.254.037c-3.859.208-9.118,3.435-10.8,5.122l-6.852,6.852-8.028-.554a3.433,3.433,0,0,0-.485-3.737c-1.5-1.5-4.109-.675-5.191.415L19.133,10.9,4.392,9.934.308,14.156l24.154,8.928L12.143,35.4H4.807L.031,40.248,13.873,43.64l3.391,13.842,4.845-4.776V45.3L34.429,32.981l8.928,24.224,4.222-4.084L46.61,38.38l2.768-2.768c1.09-1.081,1.912-3.694.415-5.191a3.433,3.433,0,0,0-3.737-.484L45.5,21.908l6.852-6.852C54.6,12.806,59.6,4.1,56.507,1.006A4.176,4.176,0,0,0,53.254.037Z" transform="translate(0 0)"/>
  </g>
</svg>
