<svg xmlns="http://www.w3.org/2000/svg" viewBox="0 0 60.041 65.262">
  <defs>
    <style>
      .cls-1 {
        fill: #333;
      }
    </style>
  </defs>
  <g id="s21" transform="translate(-2)">
    <path id="Path_7" data-name="Path 7" class="cls-1" d="M32.02,0c-10.054,0-11.88,2.835-12.2,3.712a1.452,1.452,0,0,0-.082.326l-1.509,13.3c2-.872,4.737-.76,8.28-.571,1.647.087,3.513.2,5.506.2s3.86-.117,5.507-.2c3.538-.189,6.281-.3,8.28.571L44.3,4.038a1.466,1.466,0,0,0-.082-.326C43.9,2.835,42.07,0,32.02,0ZM30.715,5.221h2.61V9.137h3.916v2.61H33.326v3.916h-2.61V11.747H26.8V9.137h3.916ZM23.74,19.252c-2.447-.071-4.324.087-5.221.938a4.149,4.149,0,0,0-.857,3.059,14.358,14.358,0,0,0,28.715,0,4.15,4.15,0,0,0-.856-3.059c-1.193-1.132-4.155-1.01-7.872-.816-1.677.087-3.569.2-5.629.2s-3.951-.117-5.629-.2C25.464,19.324,24.556,19.278,23.74,19.252Zm8.28,19.66a47.767,47.767,0,0,0-8.606.775L32.02,60.571l8.729-20.843A47.271,47.271,0,0,0,32.02,38.912ZM20.844,40.258C10.224,42.838,2,48.747,2,54.942V65.262H32.02a1.336,1.336,0,0,1-1.224-.816Zm11.176,25h30.02V54.942c0-6.164-8.132-12.084-18.681-14.684L33.244,64.446A1.349,1.349,0,0,1,32.02,65.262Z"/>
  </g>
</svg>
