<svg xmlns="http://www.w3.org/2000/svg" viewBox="0 0 53.676 65.262">
  <defs>
    <style>
      .cls-1 {
        fill: #333;
      }
    </style>
  </defs>
  <g id="s22" transform="translate(-1080 400.262)">
    <g id="surface1" transform="translate(1080 -376.146)">
      <path id="Path_7" data-name="Path 7" class="cls-1" d="M21.436,19.251c-2.188-.064-3.865.077-4.667.839A3.709,3.709,0,0,0,16,22.824a12.836,12.836,0,1,0,25.671,0,3.71,3.71,0,0,0-.766-2.735c-1.067-1.012-3.715-.9-7.038-.729-1.5.077-3.191.182-5.032.182s-3.532-.1-5.032-.182C22.976,19.314,22.165,19.273,21.436,19.251Zm7.4,17.576a42.7,42.7,0,0,0-7.694.693l7.694,18.67,7.8-18.634A42.26,42.26,0,0,0,28.838,36.827Zm-9.991,1.2C9.352,40.336,2,45.619,2,51.157v9.226H28.838a1.194,1.194,0,0,1-1.094-.729Zm9.991,22.353H55.676V51.157c0-5.511-7.27-10.8-16.7-13.127L29.932,59.654A1.206,1.206,0,0,1,28.838,60.383Z" transform="translate(-2 -19.237)"/>
    </g>
    <g id="surface1-2" data-name="surface1" transform="translate(1084.47 -400.262)">
      <path id="Path_8" data-name="Path 8" class="cls-1" d="M22.35,7a.85.85,0,0,0-.391.084L.5,17.812a.9.9,0,0,0,0,1.62l3.073,1.537V33.988A2.685,2.685,0,0,0,1.788,36.5c0,1.138,1.369,3.23,1.956,4.079l.726,1.062L5.2,40.581c.587-.849,1.956-2.94,1.956-4.079a2.685,2.685,0,0,0-1.788-2.514V21.863l1.788.894V20.41c0-3.1,4.463-3.73,6.37-4a69.566,69.566,0,0,1,8.828-.475,69.566,69.566,0,0,1,8.828.475c1.907.265,6.37.894,6.37,4v2.347L44.2,19.432a.9.9,0,0,0,0-1.62L22.741,7.084A.85.85,0,0,0,22.35,7Zm0,10.728c-5.008,0-13.41.349-13.41,2.682v4.163c1.858-.793,5.65-1.481,13.41-1.481s11.552.688,13.41,1.481V20.41C35.76,18.077,27.358,17.728,22.35,17.728Zm0,7.152c-9.289,0-13.151,1.093-13.41,1.788.014,2.326,8.406,2.682,13.41,2.682,4.9,0,13.029-.342,13.382-2.542a.662.662,0,0,0,.028-.14C35.519,25.983,31.66,24.88,22.35,24.88Z" transform="translate(0 -7)"/>
    </g>
  </g>
</svg>
