<svg xmlns="http://www.w3.org/2000/svg" viewBox="0 0 38.365 66.883">
  <defs>
    <style>
      .cls-1 {
        fill: #5d5d5d;
      }

      .cls-2 {
        fill: #333;
      }
    </style>
  </defs>
  <g id="s23" transform="translate(-1090.243 -4066.606)">
    <g id="surface1" transform="translate(1107.465 4080.632)">
      <path id="Path_4" data-name="Path 4" class="cls-1" d="M26.571,2a5.873,5.873,0,1,0,5.873,5.873A5.873,5.873,0,0,0,26.571,2ZM25.4,16.164a10.567,10.567,0,0,0-9.4,10.5V37.238l4.093,1.638.84,15.981H32.21l.84-15.981,4.093-1.638V26.667a10.567,10.567,0,0,0-9.4-10.5v2.28H25.4Zm0,3.455h2.349V31.365H25.4Z" transform="translate(-16 -2)"/>
    </g>
    <g id="surface1-2" data-name="surface1" transform="translate(1090.243 4066.606)">
      <path id="Path_4-2" data-name="Path 4" class="cls-2" d="M29.377,2a7.431,7.431,0,1,0,7.431,7.431A7.431,7.431,0,0,0,29.377,2ZM27.89,19.922A13.371,13.371,0,0,0,16,33.212V46.588l5.179,2.073,1.062,20.222H36.512l1.062-20.222,5.179-2.073V33.212a13.371,13.371,0,0,0-11.89-13.289v2.885H27.89Zm0,4.372h2.973V39.157H27.89Z" transform="translate(-16 -2)"/>
    </g>
  </g>
</svg>
