<svg xmlns="http://www.w3.org/2000/svg" viewBox="0 0 47.5 53.558">
  <defs>
    <style>
      .cls-1 {
        fill: #333;
      }
    </style>
  </defs>
  <g id="s24" transform="translate(-3 -4)">
    <path id="Path_9" data-name="Path 9" class="cls-1" d="M11.312,4A8.323,8.323,0,0,0,3,12.312v2.375a1.19,1.19,0,0,0,1.187,1.187H35.062a1.187,1.187,0,0,0,1.187-1.187V11.125A8.308,8.308,0,0,1,40.295,4Zm33.25,1.187a5.937,5.937,0,0,0-5.937,5.937v3.562a3.569,3.569,0,0,1-3.562,3.562H10.125V52.687a1.187,1.187,0,0,0,1.187,1.187H29.125v2.486a1.188,1.188,0,0,0,1.893.965l4.045-3.043,4.045,3.043A1.188,1.188,0,0,0,41,56.361V53.874h8.312A1.184,1.184,0,0,0,50.5,52.687V11.125A5.937,5.937,0,0,0,44.562,5.187ZM18.437,21.812h23.75v2.375H18.437Zm0,7.125h23.75v2.375H18.437ZM35.062,35.1a1.684,1.684,0,0,1,1.67,1.187c.121.121.107.148.223.148A1.824,1.824,0,0,1,39,36.545a1.621,1.621,0,0,1,.445,1.893c0,.121.148.107.148.223A1.778,1.778,0,0,1,41,40.107a1.753,1.753,0,0,1-.816,1.781v.334a1.863,1.863,0,0,1,.111,1.93,1.8,1.8,0,0,1-1.522.854,1.6,1.6,0,0,1-.26-.037c0,.121-.144.107-.26.223a1.522,1.522,0,0,1-1.039,1.559,1.047,1.047,0,0,1-.594.111,1.977,1.977,0,0,1-1.336-.594H34.84a2,2,0,0,1-1.93.482,1.682,1.682,0,0,1-1.039-1.559c0-.121-.139-.107-.26-.223a1.674,1.674,0,0,1-.26.037,1.8,1.8,0,0,1-1.521-.854,1.65,1.65,0,0,1,.111-1.93v-.334a1.753,1.753,0,0,1-.816-1.781,1.773,1.773,0,0,1,1.41-1.447c0-.121.148-.107.148-.223a1.622,1.622,0,0,1,.445-1.893,1.824,1.824,0,0,1,2.041-.111c.121-.121.107-.148.223-.148A1.79,1.79,0,0,1,35.062,35.1ZM31.5,48.679a3.823,3.823,0,0,0,.557.26c.042.019.069.06.111.074A4.2,4.2,0,0,0,33.5,49.2a4.076,4.076,0,0,0,1.522-.3,4.168,4.168,0,0,0,1.6.334,3.326,3.326,0,0,0,1.484-.3,3.985,3.985,0,0,0,.52-.223v5.307l-2.857-2.152a1.183,1.183,0,0,0-1.41,0L31.5,54.023Z"/>
  </g>
</svg>
