<svg xmlns="http://www.w3.org/2000/svg" viewBox="0 0 31.74 31.74">
  <defs>
    <style>
      .cls-1 {
        fill: #282828;
      }
    </style>
  </defs>
  <path id="s31b" class="cls-1" d="M6.267,4A2.27,2.27,0,0,0,4,6.267V8.534H35.74V6.267A2.27,2.27,0,0,0,33.473,4Zm.756,1.511a.756.756,0,1,1-.756.756A.756.756,0,0,1,7.023,5.511Zm2.267,0a.756.756,0,1,1-.756.756A.756.756,0,0,1,9.29,5.511Zm2.267,0a.756.756,0,1,1-.756.756A.756.756,0,0,1,11.557,5.511ZM4,10.046V33.473A2.27,2.27,0,0,0,6.267,35.74H33.473a2.27,2.27,0,0,0,2.267-2.267V10.046Zm15.114,3.779h1.511v1.739c2.192.378,2.947,1.889,3.4,3.551H22.515a2.443,2.443,0,0,0-2.57-2.192c-2.267,0-2.57,1.512-2.57,2.192,0,1.587,1.436,1.965,3.023,2.342,1.965.453,4.006,1.134,4.006,3.628a3.914,3.914,0,0,1-3.779,3.929V30.45H19.114V29.014a4.233,4.233,0,0,1-3.779-4.232h1.511a2.816,2.816,0,0,0,3.023,2.8c2.343,0,2.872-1.133,2.872-2.342,0-3.627-7.029-1.134-7.029-5.97a3.84,3.84,0,0,1,3.4-3.779Z" transform="translate(-4 -4)"/>
</svg>
