<svg xmlns="http://www.w3.org/2000/svg" viewBox="0 0 33.133 33.133">
  <defs>
    <style>
      .cls-1 {
        fill: #fff;
      }
    </style>
  </defs>
  <path id="s32a" class="cls-1" d="M18.566,2A16.566,16.566,0,1,0,35.133,18.566,16.585,16.585,0,0,0,18.566,2Zm.72,25.354v2.017H17.846V27.354c-1.945-.216-5.006-.864-5.15-5.69h1.513C14.065,26.2,18.458,26.2,18.6,26.2,22.852,26.2,23,23.32,23,22.672c0-5.114-9.868-1.513-9.868-8.283,0-1.369.684-4.394,4.718-4.61V7.762h1.477V9.779a4.848,4.848,0,0,1,4.754,5.114H22.564c-.072-1.224-.5-3.962-3.962-3.962-3.385,0-4.034,1.945-4.034,3.6,0,4.97,9.868,1.657,9.868,8.139C24.437,23.392,24.113,26.994,19.287,27.354Z" transform="translate(-2 -2)"/>
</svg>
