<svg xmlns="http://www.w3.org/2000/svg" viewBox="0 0 32.31 32.308">
  <defs>
    <style>
      .cls-1 {
        fill: #282828;
      }
    </style>
  </defs>
  <g id="s33b" transform="translate(-0.031 -0.026)">
    <path id="Path_6" data-name="Path 6" class="cls-1" d="M29.959.032a11.946,11.946,0,0,0-6.071,2.88L20.035,6.765l-4.514-.311a1.931,1.931,0,0,0-.272-2.1,2.22,2.22,0,0,0-2.919.234L10.773,6.143,2.483,5.6.187,7.972l13.582,5.02L6.842,19.919H2.717L.031,22.644l7.784,1.907,1.907,7.784,2.724-2.685V25.485l6.927-6.927,5.02,13.621,2.374-2.3-.545-8.289,1.557-1.557a2.22,2.22,0,0,0,.234-2.919,1.93,1.93,0,0,0-2.1-.272L25.6,12.33l3.853-3.853c1.265-1.265,4.077-6.159,2.335-7.9A2.348,2.348,0,0,0,29.959.032Z" transform="translate(0 0)"/>
  </g>
</svg>
