<svg xmlns="http://www.w3.org/2000/svg" viewBox="0 0 38.014 33.628">
  <defs>
    <style>
      .cls-1 {
        fill: #282828;
      }
    </style>
  </defs>
  <path id="s34b" class="cls-1" d="M21.007,3a1.462,1.462,0,0,0-.485.086v0l-.034.014q-.043.016-.086.034L6.306,9v0a2.192,2.192,0,0,0,.811,4.229H34.9a2.192,2.192,0,0,0,.811-4.229V9L35.691,9l-14.1-5.874L21.538,3.1l-.02-.006-.026-.011v0A1.462,1.462,0,0,0,21.007,3Zm0,4.386a1.462,1.462,0,1,1-1.462,1.462A1.463,1.463,0,0,1,21.007,7.386ZM7.848,16.159v11.7H6.386a1.462,1.462,0,1,0,0,2.924H35.628a1.462,1.462,0,1,0,0-2.924H34.166v-11.7H31.242v11.7H28.317v-11.7H25.393v11.7H22.469v-11.7H19.545v11.7H16.621v-11.7H13.7v11.7H10.773v-11.7ZM3.462,33.7a1.462,1.462,0,1,0,0,2.924h35.09a1.462,1.462,0,1,0,0-2.924Z" transform="translate(-2 -3)"/>
</svg>
